<?xml version="1.0" encoding="UTF-8" standalone="no"?>
<!DOCTYPE svg PUBLIC "-//W3C//DTD SVG 1.1//EN" "http://www.w3.org/Graphics/SVG/1.1/DTD/svg11.dtd">
<svg version="1.1" xmlns="http://www.w3.org/2000/svg" xmlns:xlink="http://www.w3.org/1999/xlink" preserveAspectRatio="xMidYMid meet" viewBox="0 0 640 640" width="640" height="640"><defs><path d="M0 0L0 640C76.15 495.24 123.74 404.77 142.78 368.58C210.66 239.53 313.86 132.46 440.33 59.89C454.25 51.9 489.03 31.94 544.69 0L0 0Z" id="ajqkGervo"></path><path d="M0 0L0 640C68.29 497.27 110.97 408.06 128.04 372.38C190.99 240.81 289.84 129.71 413.2 51.88C424.16 44.96 451.57 27.67 495.42 0L0 0Z" id="a1uIFm2exo"></path><path d="M0 0L0 621.82C60.23 471.82 97.88 378.08 112.94 340.58C158.76 226.47 234.95 127.08 333.25 53.19C342.68 46.1 366.27 28.37 404.01 0L0 0Z" id="e2AQeqx0NI"></path></defs><g><g><g><use xlink:href="#ajqkGervo" opacity="1" fill="#5dfff7" fill-opacity="0.5"></use></g><g><use xlink:href="#a1uIFm2exo" opacity="1" fill="#5dfff7" fill-opacity="0.5"></use></g><g><use xlink:href="#e2AQeqx0NI" opacity="1" fill="#5dfff7" fill-opacity="0.5"></use></g></g></g></svg>